<svg width="273" height="190" viewBox="0 0 273 190" fill="none" xmlns="http://www.w3.org/2000/svg">
<path d="M187.594 49.1964L173.969 62.7679L136.5 27.1429L109.25 53.4375L191 134.866L136.5 190L82 134.866L95.625 122.143L136.5 162.009L162.898 134.018L82 53.4375L136.5 0L187.594 49.1964Z" fill="black"/>
<path d="M51.728 3H106L86.496 23.4H58.512L28.832 53.15L82.256 108.4L68.688 122L0 53.15L51.728 3Z" fill="black"/>
<path d="M221.272 3H167L186.504 23.4H214.488L244.168 53.15L190.744 108.4L204.312 122L273 53.15L221.272 3Z" fill="black"/>
</svg>
